# Blender 4.2.0
# www.blender.org
mtllib house.mtl
o Plane
v 9.515178 15.689565 16.837912
v 9.515180 -0.605727 16.837912
v 9.515178 15.689565 -3.689264
v 9.515180 -0.605727 -3.689264
v 9.515178 15.689565 -8.965469
v 9.515180 -0.605727 -8.965469
v 9.515178 15.689565 -16.952293
v 9.515180 -0.605727 -16.952293
v 9.515178 15.689565 -2.459030
v 9.515180 11.034052 -2.459030
v 9.515178 15.689565 -10.445854
v 9.515180 11.034052 -10.445854
v 9.515179 12.147236 0.139870
v 9.515179 12.147236 14.605050
v 9.515180 2.936603 14.605050
v 9.515180 2.936603 0.139870
v 10.000000 16.000000 -17.499998
v 10.000000 -1.000000 -17.499998
v 10.000000 16.000000 17.499998
v 10.000000 -1.000000 17.499998
v -9.999998 16.000000 -17.499998
v -9.999998 -1.000000 -17.499998
v -9.999998 16.000000 17.499998
v -9.999998 -1.000000 17.499998
v 10.000000 15.036495 -16.647408
v 10.000000 -0.036495 -16.647408
v 10.000000 15.036495 16.647408
v 10.000000 -0.036495 16.647408
v -8.825926 15.036495 -16.647408
v -8.825926 -0.036495 -16.647408
v -8.825926 15.036495 16.647408
v -8.825926 -0.036495 16.647408
vn -1.0000 -0.0000 -0.0000
vn 1.0000 -0.0000 -0.0000
vn -0.0000 1.0000 -0.0000
vn -0.0000 -0.0000 1.0000
vn -0.0000 -1.0000 -0.0000
vn -0.0000 -0.0000 -1.0000
vt 0.000000 0.000000
vt 0.000000 1.000000
vt 1.000000 1.000000
vt 1.000000 0.000000
vt 0.625000 0.500000
vt 0.875000 0.500000
vt 0.875000 0.750000
vt 0.625000 0.750000
vt 0.375000 0.750000
vt 0.625000 1.000000
vt 0.375000 1.000000
vt 0.375000 0.000000
vt 0.625000 0.000000
vt 0.625000 0.250000
vt 0.375000 0.250000
vt 0.125000 0.500000
vt 0.375000 0.500000
vt 0.125000 0.750000
s 0
usemtl Material
f 1/1/1 3/2/1 4/3/1 2/4/1
f 5/1/2 6/4/2 8/3/2 7/2/2
f 9/1/2 10/4/2 12/3/2 11/2/2
f 1/1/2 2/4/2 15/4/2 14/1/2
f 2/4/2 4/3/2 16/3/2 15/4/2
f 3/2/2 1/1/2 14/1/2 13/2/2
f 4/3/2 3/2/2 13/2/2 16/3/2
f 17/5/3 21/6/3 23/7/3 19/8/3
f 20/9/4 19/8/4 23/10/4 24/11/4
f 24/12/1 23/13/1 21/14/1 22/15/1
f 22/16/5 18/17/5 20/9/5 24/18/5
f 19/8/2 20/9/2 28/9/2 27/8/2
f 22/15/6 21/14/6 17/5/6 18/17/6
f 25/5/5 27/8/5 31/8/5 29/5/5
f 18/17/2 17/5/2 25/5/2 26/17/2
f 20/9/2 18/17/2 26/17/2 28/9/2
f 17/5/2 19/8/2 27/8/2 25/5/2
f 30/17/2 29/5/2 31/8/2 32/9/2
f 26/17/4 25/5/4 29/5/4 30/17/4
f 28/9/3 26/17/3 30/17/3 32/9/3
f 27/8/6 28/9/6 32/9/6 31/8/6
o Cube.001
v -11.579925 14.923695 19.104546
v -11.579925 16.923695 19.104546
v -11.579925 14.923695 -19.104546
v -11.579925 16.923695 -19.104546
v 11.579925 14.923695 19.104546
v 11.579925 16.923695 19.104546
v 11.579925 14.923695 -19.104546
v 11.579925 16.923695 -19.104546
vn -1.0000 -0.0000 -0.0000
vn -0.0000 -0.0000 -1.0000
vn 1.0000 -0.0000 -0.0000
vn -0.0000 -0.0000 1.0000
vn -0.0000 -1.0000 -0.0000
vn -0.0000 1.0000 -0.0000
vt 0.375000 0.000000
vt 0.625000 0.000000
vt 0.625000 0.250000
vt 0.375000 0.250000
vt 0.625000 0.500000
vt 0.375000 0.500000
vt 0.625000 0.750000
vt 0.375000 0.750000
vt 0.625000 1.000000
vt 0.375000 1.000000
vt 0.125000 0.500000
vt 0.125000 0.750000
vt 0.875000 0.500000
vt 0.875000 0.750000
s 0
f 33/19/7 34/20/7 36/21/7 35/22/7
f 35/22/8 36/21/8 40/23/8 39/24/8
f 39/24/9 40/23/9 38/25/9 37/26/9
f 37/26/10 38/25/10 34/27/10 33/28/10
f 35/29/11 39/24/11 37/26/11 33/30/11
f 40/23/12 36/31/12 34/32/12 38/25/12
